Coordinates
version=1
nRows=16
nColumns=36
inDegrees=yes

Units are S.I. units (second, meters, Newtons, ...)
If the header above contains a line with 'inDegrees', this indicates whether rotational values are in degrees (yes) or radians (no).

endheader
time	pelvis_tilt	pelvis_list	pelvis_rotation	pelvis_tx	pelvis_ty	pelvis_tz	hip_flexion_r	hip_adduction_r	hip_rotation_r	knee_angle_r	knee_angle_r_beta	ankle_angle_r	subtalar_angle_r	mtp_angle_r	hip_flexion_l	hip_adduction_l	hip_rotation_l	knee_angle_l	knee_angle_l_beta	ankle_angle_l	subtalar_angle_l	mtp_angle_l	lumbar_extension	lumbar_bending	lumbar_rotation	arm_flex_r	arm_add_r	arm_rot_r	elbow_flex_r	pro_sup_r	arm_flex_l	arm_add_l	arm_rot_l	elbow_flex_l	pro_sup_l
      4.92083330	     -6.11268534	      0.02386329	     -0.67114462	      0.46200358	      0.90712098	     -0.01220432	      1.91278563	     -2.38144744	      1.71322493	      3.71418355	      0.06482473	      1.36652735	    -22.69193368	     -7.49999987	      1.51254047	     -6.21728951	     -8.12713963	      3.35041670	      0.05847580	      4.27304085	     -4.19498163	     -7.49999987	      3.09736017	      1.34101232	      0.81308069	     -8.07425563	     -7.32316489	    -20.72576125	     27.54562604	     65.81374108	     -6.71757103	    -10.79033464	     10.68077114	     40.97374253	     79.29985051
      4.92500000	     -6.15007067	      0.02457000	     -0.72866958	      0.46148930	      0.91128065	     -0.01297916	      1.94161079	     -2.39529683	      1.71735526	      3.66499338	      0.06396620	      1.33798660	    -22.66881507	     -7.49999987	      1.52540559	     -6.21245961	     -8.14509054	      3.29676095	      0.05753933	      4.26175747	     -4.18997196	     -7.49999987	      3.23969972	      1.32088988	      0.83409325	     -7.75876493	     -7.21805206	    -20.66906719	     27.68536609	     65.83956226	     -6.45086042	    -10.70280451	     10.73130333	     41.10343363	     79.34836850
      4.92916670	     -6.08748446	      0.06338533	     -0.81531562	      0.45928537	      0.91161560	     -0.01383961	      1.87848354	     -2.45989196	      1.82732310	      3.52781325	      0.06157196	      1.14310575	    -22.63769545	     -7.49999987	      1.41388976	     -6.12637329	     -8.22766956	      3.13700878	      0.05475113	      4.05799312	     -4.26409206	     -7.49999987	      3.00855558	      1.29775116	      1.11973515	     -7.65718855	     -7.38411292	    -19.37135680	     28.19210263	     66.93228716	     -5.75183822	    -11.14624289	     12.77787953	     41.30514730	     81.80715561
      4.93333330	     -5.90118061	      0.07530942	     -0.80654974	      0.45945906	      0.91214671	     -0.01289680	      1.63275764	     -2.47798247	      1.89180180	      3.33071691	      0.05813198	      0.96012411	    -22.67085650	     -7.49999987	      1.18847571	     -6.10120549	     -8.16219489	      3.04230458	      0.05309823	      3.89797390	     -4.36069011	     -7.49999987	      2.64391194	      1.26469017	      1.00759160	     -7.30143812	     -7.20807192	    -19.20639801	     28.70026078	     66.64556393	     -5.56284693	    -11.14313228	     12.67951704	     41.91470905	     81.19481628
      4.93750000	     -5.79957897	      0.07661790	     -0.79552371	      0.45990365	      0.91181763	     -0.00972542	      1.45611503	     -2.44807252	      1.60922771	      3.14587487	      0.05490587	      1.16586109	    -21.94054928	     -7.49999987	      1.04315328	     -6.12873094	     -8.22103289	      2.93418436	      0.05121118	      3.83459450	     -4.18246860	     -7.49999987	      2.50514670	      1.16005061	      0.96926042	     -7.06385345	     -6.96973239	    -19.21172128	     29.00340150	     69.28584634	     -5.24153434	    -11.12047542	     12.19345193	     42.14979390	     86.98198218
      4.94166670	     -5.71137197	      0.07182151	     -0.79101989	      0.45773579	      0.90773428	     -0.01165639	      1.34910773	     -2.43463769	      1.45621664	      3.04549710	      0.05315395	      1.29898720	    -21.65602254	     -7.49999987	      0.97991560	     -6.13498683	     -8.27134612	      2.88782473	      0.05040205	      3.97172516	     -4.04316453	     -7.49999987	      2.32817618	      1.09535181	      0.95741542	     -6.70771063	     -6.81778812	    -18.92399129	     29.20580696	     69.06009615	     -4.86701382	    -11.17668086	     12.57367852	     42.41946542	     86.22439764
      4.94583330	     -5.73463959	      0.09346207	     -0.78976118	      0.45700502	      0.91064814	     -0.01443697	      1.38115779	     -2.48490868	      1.41635132	      2.98783485	      0.05214756	      1.28939119	    -21.66357497	     -7.49999987	      1.03508920	     -6.09379876	     -8.28365159	      2.83394159	      0.04946161	      3.96186971	     -4.06210257	     -7.49999987	      2.40998260	      1.08044317	      0.97452743	     -6.38868892	     -6.70294118	    -18.85828703	     29.35027285	     69.07547575	     -4.57937327	    -11.05324177	     12.60857676	     42.55638524	     86.23508062
      4.95000000	     -5.47832042	      0.13591685	     -0.67885810	      0.45780422	      0.90767562	     -0.01458552	      1.04055884	     -2.59145090	      1.19228198	      2.84732245	      0.04969515	      1.22202558	    -21.53852088	     -7.49999987	      0.80301532	     -6.00013049	     -8.01437094	      2.76083931	      0.04818574	      3.80547790	     -4.32505606	     -7.49999987	      1.84464878	      1.00207198	      0.80662655	     -6.26125725	     -6.68025888	    -17.98366276	     30.43849133	     68.46847621	     -4.31357208	    -11.22893310	     13.32750214	     43.43110997	     84.79002567
      4.95416670	     -5.43618627	      0.16190824	     -0.63965906	      0.45566192	      0.90913156	     -0.01617978	      1.03398300	     -2.69225543	      0.96970041	      2.87366812	      0.05015497	      1.33914943	    -21.33212310	     -7.49999987	      0.82936313	     -5.88453862	     -8.00072320	      2.73154243	      0.04767441	      3.73705548	     -4.42381382	     -7.49999987	      1.65484147	      1.03261303	      0.74079071	     -6.04184925	     -6.69975874	    -17.31219184	     31.18431156	     67.65528392	     -4.05231157	    -11.21868475	     13.71039073	     43.88261322	     82.94374295
      4.95833330	     -5.58790081	      0.22458625	     -0.61711990	      0.45438946	      0.90641655	     -0.01943277	      1.29542618	     -2.86714799	      0.94951404	      2.91225335	      0.05082841	      1.07426279	    -21.75373691	     -7.49999987	      1.10899268	     -5.73510795	     -7.91467821	      2.79743973	      0.04882453	      3.88333149	     -4.51008478	     -7.49999987	      1.84471858	      1.03546658	      0.82570727	     -5.68611364	     -7.03235646	    -15.72102647	     31.02931805	     67.68363229	     -3.30279580	    -11.21408124	     15.08073878	     43.50889217	     82.96755882
      4.96250000	     -5.62180903	      0.26336596	     -0.57677545	      0.45534630	      0.91057280	     -0.01836524	      1.36856959	     -2.96958835	      0.87898646	      2.91665035	      0.05090515	      1.04032168	    -21.73164188	     -7.49999987	      1.19406856	     -5.62471439	     -7.90766805	      2.76056330	      0.04818092	      3.86509273	     -4.51700650	     -7.49999987	      1.80930122	      1.04856405	      0.83270303	     -5.35790458	     -6.95665026	    -15.62470035	     31.23849771	     67.72915965	     -3.02622256	    -11.03049327	     15.12791161	     43.65636441	     83.04256564
      4.96666670	     -5.53244382	      0.31474704	     -0.53241322	      0.45276799	      0.90422897	     -0.02048787	      1.37547274	     -3.13593308	      0.68944726	      2.97423112	      0.05191013	      1.11533730	    -21.70107124	     -7.49999987	      1.20790774	     -5.49759686	     -7.82398991	      2.81464816	      0.04912488	      4.00552965	     -4.66233631	     -7.49999987	      1.48208608	      1.09302957	      0.83843275	     -5.13421012	     -7.12091956	    -14.82042453	     32.20864625	     67.30184661	     -2.62790435	    -10.96438050	     15.55923155	     44.12946877	     81.62006804
      4.97083330	     -5.52103528	      0.32864168	     -0.44425108	      0.45188125	      0.90741292	     -0.02271095	      1.42996839	     -3.24084173	      0.54598350	      3.00241131	      0.05240196	      1.08529013	    -21.64223917	     -7.49999987	      1.26504012	     -5.39769545	     -7.58698248	      2.76300786	      0.04822358	      3.97161709	     -4.80072822	     -7.49999987	      1.30278482	      1.16618817	      0.70864501	     -4.76793254	     -7.21878973	    -14.13424411	     32.85577293	     66.76294523	     -2.33832135	    -10.79083237	     15.64602161	     44.46033024	     80.29786468
      4.97500000	     -5.78300495	      0.34438978	     -0.36361502	      0.45243741	      0.91285899	     -0.02265159	      1.73323173	     -3.33827644	      0.45519412	      2.95081965	      0.05150152	      0.94771904	    -21.60224300	     -7.49999987	      1.62286827	     -5.31814349	     -7.51246771	      2.78310844	      0.04857441	      3.93730608	     -4.78997144	     -7.49999987	      1.63011102	      1.22794700	      0.71280530	     -4.43747087	     -7.52676595	    -12.38603231	     32.85388739	     67.70983424	     -1.84572190	    -10.62784529	     16.27405353	     43.90620880	     82.05275962
      4.97916670	     -5.59192817	      0.36440043	     -0.26359498	      0.45570236	      0.91962959	     -0.01950926	      1.39692355	     -3.35595828	      0.26268027	      2.73080291	      0.04766150	      0.80894633	    -21.28361076	     -7.49999987	      1.34788051	     -5.25667523	     -7.50003240	      2.62006108	      0.04572869	      3.69464711	     -4.59393930	     -7.49999987	      1.29939010	      1.24896224	      0.70759118	     -4.08697246	     -7.36766618	    -12.16952814	     33.01549389	     67.93443284	     -1.61931482	    -10.49366658	     16.11867451	     44.10652294	     82.53086681
      4.98333330	     -5.45095264	      0.35868701	     -0.21587435	      0.45309952	      0.91505706	     -0.02000738	      1.17457342	     -3.32546080	      0.07254234	      2.58228477	      0.04506937	      0.84562135	    -20.94488105	     -7.49999987	      1.16390709	     -5.27390345	     -7.60884230	      2.57564045	      0.04495341	      3.60989375	     -4.39797324	     -7.49999987	      0.96301417	      1.25119610	      0.65368692	     -3.65187115	     -7.44475824	    -11.05816913	     33.39452120	     68.55997775	     -1.39021742	    -10.45612146	     15.85502790	     44.37534824	     83.69027642
